<svg stroke="currentColor" fill="currentColor" stroke-width="0" viewBox="0 0 256 256" xmlns="http://www.w3.org/2000/svg" height="256px" width="256px">
  <!-- Light peach-colored circular background -->
  <circle cx="50%" cy="50%" r="128px" fill="#FFF3E7"/>
  
  <!-- Wrapped path inside a group with proper closing -->
  <g transform="translate(25, 35) scale(0.4)">
    <path d="M52.441 53.88c-35.103 34.696-41.31 73.89-33.228 117.837 6.29 34.202 22.079 70.807 40.892 107.767 17.738-27.114 41.117-56.824 68.676-78.517-20.7-17.164-38.261-35.891-51.367-56.447-17.29-27.12-26.504-57.61-24.973-90.64zm407.118 0c1.531 33.03-7.683 63.52-24.973 90.64-13.106 20.556-30.667 39.283-51.367 56.447 27.559 21.693 50.938 51.403 68.676 78.517 18.813-36.96 34.603-73.565 40.892-107.767 8.082-43.947 1.875-83.141-33.228-117.836zM256 179c-8.702 0-17.061 2.757-23 7.316v22.38c6.7-2.648 14.535-4.016 23-4.016s16.3 1.368 23 4.015v-22.379c-5.939-4.559-14.298-7.316-23-7.316zm-41 30.053c-30.485 11.577-60.043 34.66-84.166 62.804C98.718 309.326 76.784 355.501 73.482 391H215V209.053zm82 0V391h141.518c-3.301-35.499-25.236-81.674-57.352-119.143-24.123-28.143-53.681-51.227-84.166-62.804zm-153.502 3.49c-29.097 22.175-55.189 56.212-73.732 85.506a2034.036 2034.036 0 0 0 9.447 17.562c10.162-19.226 23.088-38.126 37.953-55.468 11.983-13.98 25.289-26.965 39.557-38.155a416.25 416.25 0 0 1-13.225-9.445zm225.004 0a416.25 416.25 0 0 1-13.225 9.445c14.268 11.19 27.574 24.175 39.557 38.155 14.865 17.342 27.79 36.242 37.953 55.468 3.179-5.85 6.339-11.705 9.447-17.562-18.543-29.294-44.635-63.33-73.732-85.506zM256 222.68c-7.62 0-14.449 1.66-18.602 3.736-3.262 1.631-4.103 2.973-4.318 3.264.215.29 1.056 1.632 4.318 3.263 4.153 2.077 10.981 3.737 18.602 3.737 7.62 0 14.449-1.66 18.602-3.737 3.262-1.63 4.103-2.972 4.318-3.263-.215-.291-1.056-1.633-4.318-3.264-4.153-2.077-10.981-3.736-18.602-3.736z"></path>
  </g>
</svg>
